<svg data-v-d3f97b9e="" xmlns="http://www.w3.org/2000/svg" viewBox="0 0 390 100"><!----><!----><!----><g data-v-d3f97b9e="" id="003a8e24-7ca9-4cc5-b096-4f77d7361561" fill="#000000" transform="matrix(5.952380997433594,0,0,5.952380997433594,111.68398094325923,4.094678168574333)"><path d="M1.75 7.70C1.75 6.56 2.11 5.62 2.84 4.89C3.57 4.15 4.49 3.78 5.60 3.78C6.71 3.78 7.63 4.15 8.36 4.89C9.09 5.62 9.45 6.56 9.45 7.70C9.45 8.63 9.20 9.44 8.71 10.11L7.06 8.40L5.59 8.40L7.97 10.86C7.30 11.37 6.51 11.62 5.60 11.62C4.49 11.62 3.57 11.25 2.84 10.51C2.11 9.78 1.75 8.84 1.75 7.70ZM0.56 7.70C0.56 9.16 1.04 10.36 2.00 11.31C2.96 12.26 4.16 12.74 5.60 12.74C6.82 12.74 7.88 12.39 8.76 11.69L9.65 12.60L11.12 12.60L9.52 10.95C10.27 10.03 10.64 8.95 10.64 7.70C10.64 6.24 10.16 5.04 9.20 4.09C8.24 3.14 7.04 2.66 5.60 2.66C4.16 2.66 2.96 3.14 2.00 4.09C1.04 5.04 0.56 6.24 0.56 7.70ZM16.38 10.08C16.38 10.55 16.23 10.93 15.93 11.23C15.62 11.54 15.23 11.69 14.74 11.69C13.83 11.69 13.37 11.15 13.37 10.08L13.37 6.16L12.25 6.16L12.25 10.22C12.25 11.03 12.45 11.65 12.85 12.09C13.24 12.52 13.78 12.74 14.46 12.74C15.26 12.74 15.90 12.40 16.38 11.73L16.38 12.60L17.50 12.60L17.50 6.16L16.38 6.16ZM19.60 3.50C19.60 3.71 19.68 3.88 19.83 4.04C19.98 4.19 20.16 4.27 20.37 4.27C20.58 4.27 20.76 4.19 20.91 4.04C21.06 3.88 21.14 3.71 21.14 3.50C21.14 3.29 21.06 3.12 20.91 2.96C20.76 2.81 20.58 2.73 20.37 2.73C20.16 2.73 19.98 2.81 19.83 2.96C19.68 3.12 19.60 3.29 19.60 3.50ZM19.81 6.16L19.81 12.60L20.93 12.60L20.93 6.16ZM26.32 7.21L22.33 12.60L28.07 12.60L28.07 11.55L24.36 11.55L28.35 6.16L22.61 6.16L22.61 7.21ZM33.74 2.80L33.74 9.38C33.74 10.35 34.06 11.15 34.69 11.79C35.33 12.42 36.12 12.74 37.07 12.74C38.02 12.74 38.82 12.42 39.45 11.79C40.09 11.15 40.40 10.35 40.40 9.38L40.40 2.80L39.21 2.80L39.21 9.38C39.21 10.05 39.02 10.59 38.62 11.00C38.22 11.41 37.71 11.62 37.07 11.62C36.44 11.62 35.92 11.41 35.53 11.00C35.13 10.59 34.93 10.05 34.93 9.38L34.93 2.80ZM42.80 10.35L41.87 10.88C41.97 11.40 42.26 11.84 42.76 12.20C43.25 12.56 43.80 12.74 44.39 12.74C45.12 12.74 45.70 12.58 46.12 12.26C46.54 11.93 46.75 11.44 46.75 10.78C46.75 10.01 46.15 9.37 44.97 8.88C44.65 8.75 44.40 8.64 44.22 8.55C44.04 8.46 43.86 8.34 43.67 8.18C43.49 8.03 43.40 7.87 43.40 7.71C43.40 7.29 43.73 7.08 44.38 7.08C44.66 7.08 44.93 7.15 45.20 7.28C45.47 7.41 45.66 7.60 45.79 7.85L46.69 7.28C46.57 6.93 46.28 6.63 45.82 6.38C45.36 6.14 44.88 6.02 44.37 6.02C43.82 6.02 43.33 6.18 42.91 6.49C42.49 6.80 42.28 7.21 42.28 7.71C42.28 7.97 42.33 8.19 42.43 8.40C42.54 8.61 42.69 8.78 42.89 8.93C43.09 9.08 43.28 9.20 43.46 9.29C43.63 9.38 43.86 9.48 44.13 9.59C44.37 9.68 44.56 9.76 44.68 9.82C44.81 9.88 44.95 9.97 45.12 10.07C45.28 10.18 45.40 10.30 45.47 10.43C45.55 10.56 45.58 10.71 45.58 10.88C45.58 11.42 45.21 11.69 44.46 11.69C44.06 11.69 43.71 11.56 43.39 11.31C43.08 11.06 42.88 10.74 42.80 10.35Z"></path></g><linearGradient data-v-d3f97b9e="" gradientTransform="rotate(25)" id="9779ac89-477b-47ff-b84f-a48980e9f4f1" x1="0%" y1="0%" x2="100%" y2="0%"><stop data-v-d3f97b9e="" offset="0%" style="stop-color: rgb(1, 105, 90); stop-opacity: 1;"></stop><stop data-v-d3f97b9e="" offset="100%" style="stop-color: rgb(44, 194, 111); stop-opacity: 1;"></stop></linearGradient><g data-v-d3f97b9e="" id="01b55c5d-0b1b-4a12-b75d-53794345418d" transform="matrix(1.053333452012804,0,0,1.053333452012804,-4.769989988912741,-2.0666782209614567)" stroke="none" fill="url(#9779ac89-477b-47ff-b84f-a48980e9f4f1)"><path d="M60.6 85.5v2.8c0 2.2-1.6 4-3.7 4.3l-.7 2.5c-.4 1.3-1.6 2.3-3 2.3h-6.7c-1.4 0-2.7-1-3-2.3l-.7-2.5c-2.1-.3-3.7-2.1-3.7-4.3v-2.8c0-1.4 1.1-2.7 2.7-2.7H58c1.5.1 2.6 1.3 2.6 2.7zM47.4 5.2v9.2c0 1.4 1.1 2.6 2.6 2.6 1.4 0 2.6-1.1 2.6-2.6V5.2c0-1.4-1.1-2.6-2.6-2.6-1.4 0-2.6 1.2-2.6 2.6zM19.2 47.8c0-1.4-1.1-2.6-2.6-2.6H7.5c-1.4 0-2.6 1.1-2.6 2.6 0 1.4 1.1 2.6 2.6 2.6h9.2c1.3-.1 2.5-1.2 2.5-2.6zm73.3-2.6h-9.2c-1.4 0-2.6 1.1-2.6 2.6 0 1.4 1.1 2.6 2.6 2.6h9.2c1.4 0 2.6-1.1 2.6-2.6.1-1.5-1-2.6-2.6-2.6zm-68 24.3L18 76c-1.1 1.1-1.1 2.7 0 3.7.5.5 1.1.8 1.8.8s1.3-.3 1.8-.8l6.5-6.5c1.1-1.1 1.1-2.7 0-3.7-.9-1-2.5-1-3.6 0zm53.8-53.7l-6.5 6.5c-1.1 1.1-1.1 2.7 0 3.7.6.5 1.2.8 1.9.8s1.3-.3 1.8-.8l6.5-6.5c1.1-1.1 1.1-2.7 0-3.7-1.1-1.1-2.7-1.1-3.7 0zm-60.4 0c-1.1 1.1-1.1 2.7 0 3.7l6.6 6.5c.5.5 1.1.8 1.8.8s1.3-.3 1.8-.8c1.1-1.1 1.1-2.7 0-3.7l-6.5-6.5c-1-1.1-2.6-1.1-3.7 0zm57.6 53.7c-1.1-1.1-2.7-1.1-3.7 0-1.1 1.1-1.1 2.7 0 3.7l6.5 6.5c.5.5 1.1.8 1.8.8s1.3-.3 1.8-.8c1.1-1.1 1.1-2.7 0-3.7l-6.4-6.5zM74.2 48c0 6.2-2.5 12.4-6.8 16.8-2.5 2.6-4.1 5.8-4.6 9.3-.5 3-3.1 5.3-6.2 5.3H43.2c-3.1 0-5.7-2.2-6.2-5.3-.5-3.5-2.2-6.8-4.6-9.3-4.3-4.5-6.7-10.3-6.8-16.5-.1-13.4 10.7-24.4 24-24.5h.2c13.4.1 24.4 10.9 24.4 24.2zm-6.7.1c0-9.7-7.9-17.6-17.6-17.6s-17.6 7.9-17.6 17.6c0 9.7 7.9 17.6 17.6 17.6s17.6-7.9 17.6-17.6zm-20.2.5l-3.7-3.7-3.9 3.9 3.7 3.7 3.9 3.9 3.9-3.9 8.9-8.9-3.9-3.9-8.9 8.9z"></path></g><!----></svg>